<?xml version="1.0" standalone="no"?>
<!DOCTYPE svg PUBLIC "-//W3C//DTD SVG 20010904//EN"
 "http://www.w3.org/TR/2001/REC-SVG-20010904/DTD/svg10.dtd">
<svg version="1.0" xmlns="http://www.w3.org/2000/svg"
 width="830.000000pt" height="830.000000pt" viewBox="0 0 830.000000 830.000000"
 preserveAspectRatio="xMidYMid meet">
<metadata>
Created by potrace 1.14, written by Peter Selinger 2001-2017
</metadata>
<g transform="translate(0.000000,830.000000) scale(0.100000,-0.100000)"
fill="#000000" stroke="none">
<path d="M3908 8295 c-2 -2 -45 -6 -95 -9 -51 -4 -103 -9 -115 -11 -13 -2 -45
-6 -73 -10 -27 -3 -90 -13 -140 -21 -49 -8 -103 -17 -120 -20 -16 -3 -37 -7
-45 -9 -8 -2 -26 -6 -40 -9 -146 -27 -505 -138 -635 -196 -11 -5 -31 -12 -45
-16 -42 -12 -286 -129 -420 -201 -146 -79 -360 -217 -490 -317 -131 -100 -145
-111 -155 -122 -5 -5 -39 -35 -75 -65 -141 -119 -461 -454 -530 -556 -8 -12
-40 -54 -71 -95 -56 -72 -219 -312 -219 -321 0 -3 -19 -36 -42 -73 -43 -72
-130 -241 -193 -379 -36 -77 -133 -324 -140 -355 -2 -8 -19 -64 -39 -125 -19
-60 -38 -124 -41 -142 -3 -18 -10 -45 -16 -60 -6 -15 -10 -30 -9 -33 0 -3 -9
-45 -20 -95 -21 -95 -56 -307 -64 -390 -3 -27 -8 -75 -11 -105 -14 -120 -20
-533 -10 -635 2 -22 6 -69 9 -105 7 -79 13 -127 32 -250 23 -150 28 -179 48
-275 80 -376 261 -835 470 -1190 51 -86 198 -310 233 -355 18 -24 152 -192
173 -219 74 -93 306 -328 445 -451 65 -57 289 -232 326 -255 9 -5 58 -38 108
-72 50 -35 94 -63 96 -63 3 0 29 -15 58 -34 123 -79 362 -198 562 -281 219
-91 616 -206 795 -230 8 -2 60 -10 115 -19 55 -9 120 -19 145 -22 25 -3 55 -7
67 -9 134 -22 690 -23 823 -1 14 3 52 7 85 11 33 3 114 15 180 26 66 12 134
23 150 26 17 2 48 9 70 15 22 5 47 11 55 13 168 34 526 153 696 231 113 51
299 144 364 180 125 70 351 216 431 278 15 12 39 30 54 41 166 119 462 398
630 595 214 249 383 502 540 805 72 140 91 182 167 370 51 129 131 369 144
430 2 11 15 65 28 120 31 124 40 169 50 235 6 41 35 251 41 295 24 181 25 706
1 830 -2 11 -7 54 -11 95 -4 41 -9 84 -11 95 -2 11 -11 63 -20 115 -20 125
-75 356 -120 500 -118 382 -294 751 -517 1081 -76 113 -110 162 -117 169 -3 3
-28 34 -55 70 -28 36 -57 72 -65 81 -8 9 -33 37 -55 64 -136 165 -385 404
-580 556 -223 175 -404 290 -673 430 -227 118 -575 253 -784 304 -35 9 -70 18
-78 20 -131 35 -173 44 -231 50 -15 2 -39 6 -55 9 -64 14 -104 20 -219 35 -44
5 -102 13 -130 17 -45 6 -611 14 -617 9z"/>
</g>
</svg>
